<svg width="54" height="59" viewBox="0 0 54 59" fill="none" xmlns="http://www.w3.org/2000/svg">
<path fill-rule="evenodd" clip-rule="evenodd" d="M4.5378 3.5724V11.5819H24.1898V8.9187L4.5378 3.5724ZM4.5378 22.7392V19.9499H24.1898V22.7392H4.5378ZM4.5378 17.1605V14.3712H24.1898V17.1605H4.5378ZM5.44545 35.628H14.0675V40.2767H5.44545V35.628ZM5.44545 28.5271H14.0675V33.1759H5.44545V28.5271ZM27.9383 56.2108H4.53375C4.53645 56.1718 4.5378 56.1328 4.5378 56.0928V25.5286H24.1898V30.7777C24.1898 30.9198 24.2109 31.0573 24.2496 31.1867L17.51 36.778C16.8827 37.2982 16.7576 38.2063 17.2305 38.8045C17.703 39.4026 18.5963 39.4657 19.2236 38.9456L33.1794 27.368L37.1282 31.7059C37.1664 31.7499 37.2074 31.7912 37.2515 31.8293C37.3136 31.886 37.382 31.9364 37.4553 31.9791C37.4571 31.9818 37.4603 31.9836 37.4634 31.9845C37.6016 32.0676 37.755 32.1252 37.9202 32.1497C37.9373 32.1565 37.9557 32.1593 37.9746 32.1611C38.3648 32.2128 38.7707 32.0953 39.0776 31.8025C39.3246 31.5665 39.4655 31.2561 39.4979 30.9343C39.5024 30.8826 39.5051 30.8304 39.5051 30.7777V29.3831H42.4445V36.6628C42.4445 37.0499 42.5984 37.4003 42.8499 37.6499C42.8981 37.7234 42.9552 37.7928 43.0178 37.8596L49.3394 44.566H46.1565C46.1426 44.566 46.1286 44.566 46.1147 44.5674C46.1016 44.566 46.0881 44.566 46.0746 44.566C45.3231 44.566 44.7134 45.215 44.7134 46.0143V56.1568C44.7134 56.175 44.7134 56.1931 44.7143 56.2108H34.0335V42.7293H27.9383V56.2108ZM1.8153 2.83126V56.0928C1.8153 56.1328 1.81665 56.1718 1.81935 56.2108H1.3932C0.62415 56.2108 0 56.8358 0 57.6055C0 58.3752 0.62415 59.0002 1.3932 59.0002H48.069C48.8381 59.0002 49.4622 58.3752 49.4622 57.6055C49.4622 56.8358 48.8381 56.2108 48.069 56.2108H47.435C47.4354 56.1931 47.4359 56.175 47.4359 56.1568V47.4289H52.7139C52.7985 47.4289 52.8809 47.4203 52.9592 47.3999C52.997 47.3967 53.033 47.3876 53.0685 47.3772C53.0834 47.3758 53.0973 47.3722 53.1099 47.3636C53.3025 47.3127 53.4785 47.2133 53.6256 47.0676C53.946 46.7509 54.0585 46.2857 53.9717 45.8209C53.9609 45.373 53.726 44.9813 53.3772 44.7594L45.167 36.0492V28.2948C45.167 28.243 45.1643 28.1922 45.1602 28.1414C45.1643 28.091 45.167 28.0401 45.167 27.9884C45.167 27.2187 44.5491 26.5937 43.7877 26.5937H38.1618C38.1587 26.5937 38.1555 26.5937 38.1528 26.5942C38.1497 26.5937 38.147 26.5937 38.1438 26.5937C37.6038 26.5937 37.1367 26.9164 36.9167 27.3839L34.3746 24.5909C34.0799 24.2673 33.674 24.1144 33.2775 24.1357C32.9481 24.1357 32.6093 24.2519 32.3249 24.4874L26.9127 28.9773V9.65938L27.1377 9.72065C27.8559 9.91626 28.5966 9.47784 28.7906 8.74306L28.7987 8.7122C28.9926 7.97697 28.5674 7.22177 27.8487 7.02616L2.1933 0.046919C1.4751 -0.148689 0.7344 0.289273 0.54045 1.0245L0.53235 1.05537C0.3384 1.79014 0.7641 2.54534 1.4823 2.74095L1.8153 2.83126ZM5.44545 42.7293H14.0675V47.3781H5.44545V42.7293Z" fill="#FC3809"/>
</svg>
