<svg width="31" height="32" viewBox="0 0 31 32" fill="none" xmlns="http://www.w3.org/2000/svg">
<g clip-path="url(#clip0)">
<path d="M30.8167 0.632616C30.8088 0.623463 30.8049 0.613292 30.801 0.608207C30.7931 0.594985 30.7812 0.586848 30.7783 0.576677C30.5545 0.260369 30.2006 0.0539046 29.7945 0.0539046H29.7925H9.13808H9.13512C8.46186 0.0539046 7.91969 0.616343 7.91969 1.30897V1.30998V2.40435V6.51534V8.82815V12.9402V15.2499V19.3599V21.6717V25.7837V26.877C7.91969 27.1283 7.99264 27.3632 8.11586 27.5595C8.12177 27.5656 8.12374 27.5737 8.12769 27.5808C8.13754 27.593 8.1474 27.6022 8.15233 27.6114C8.37412 27.9287 8.72998 28.1351 9.13512 28.1351H9.1371H10.6492C10.3949 29.8387 8.97839 31.1508 7.25727 31.1508C5.5184 31.1508 4.09103 29.8113 3.86135 28.0782H5.38631C6.05958 28.0782 6.60273 27.5158 6.60273 26.8241V26.8231V25.7298V21.6178V19.307V15.197V12.8852V8.77221V6.46041V2.35044V1.25506V1.25303C6.60273 1.00486 6.53175 0.770937 6.40854 0.577695C6.40361 0.570575 6.39868 0.559387 6.39276 0.553285C6.38784 0.54108 6.37896 0.531926 6.37009 0.522773C6.1483 0.207482 5.79244 0 5.38533 0H1.22447H1.2225C0.550214 0 0.00805092 0.562438 0.00805092 1.25303V1.25506V2.34943V6.4594V8.77119V12.8832V15.195V19.305V21.6157V25.7277V26.8221V26.8231C0.00805092 27.0743 0.079025 27.3083 0.202244 27.5035C0.208158 27.5096 0.212101 27.5188 0.216044 27.5249C0.22393 27.5381 0.232802 27.5463 0.238717 27.5564C0.462482 27.8738 0.816367 28.0792 1.2225 28.0792H1.22447H3.03628C3.27187 30.2781 5.06397 32 7.25628 32C9.43184 32 11.2131 30.3046 11.4723 28.1331H29.7915H29.7935C30.4668 28.1331 31.008 27.5697 31.008 26.8791V26.877V25.7827V21.6707V19.3609V15.2509V12.9402V8.82815V6.51635V2.40537V1.311V1.30998C31.0109 1.05877 30.938 0.825859 30.8167 0.632616ZM15.7436 18.9744C15.7436 19.2704 15.511 19.5084 15.2241 19.5084H12.3635C12.0766 19.5084 11.845 19.2704 11.845 18.9744V17.7234C11.845 17.4295 12.0766 17.1895 12.3635 17.1895H15.2241C15.511 17.1895 15.7436 17.4295 15.7436 17.7234V18.9744ZM15.7436 14.72C15.7436 15.016 15.511 15.256 15.2241 15.256H12.3635C12.0766 15.256 11.845 15.016 11.845 14.72V13.47C11.845 13.1741 12.0766 12.9341 12.3635 12.9341H15.2241C15.511 12.9341 15.7436 13.1741 15.7436 13.47V14.72ZM15.7436 10.4656C15.7436 10.7596 15.511 11.0006 15.2241 11.0006H12.3635C12.0766 11.0006 11.845 10.7596 11.845 10.4656V9.21565C11.845 8.91968 12.0766 8.67966 12.3635 8.67966H15.2241C15.511 8.67966 15.7436 8.91968 15.7436 9.21565V10.4656ZM21.4156 18.9744C21.4156 19.2704 21.185 19.5084 20.8961 19.5084H18.0365C17.7476 19.5084 17.518 19.2704 17.518 18.9744V17.7234C17.518 17.4295 17.7476 17.1895 18.0365 17.1895H20.8961C21.185 17.1895 21.4156 17.4295 21.4156 17.7234V18.9744ZM21.4156 14.72C21.4156 15.016 21.185 15.256 20.8961 15.256H18.0365C17.7476 15.256 17.518 15.016 17.518 14.72V13.47C17.518 13.1741 17.7476 12.9341 18.0365 12.9341H20.8961C21.185 12.9341 21.4156 13.1741 21.4156 13.47V14.72ZM21.4156 10.4656C21.4156 10.7596 21.185 11.0006 20.8961 11.0006H18.0365C17.7476 11.0006 17.518 10.7596 17.518 10.4656V9.21565C17.518 8.91968 17.7476 8.67966 18.0365 8.67966H20.8961C21.185 8.67966 21.4156 8.91968 21.4156 9.21565V10.4656ZM27.0876 18.9744C27.0876 19.2704 26.855 19.5084 26.5662 19.5084H23.7085C23.4197 19.5084 23.188 19.2704 23.188 18.9744V17.7234C23.188 17.4295 23.4197 17.1895 23.7085 17.1895H26.5662C26.855 17.1895 27.0876 17.4295 27.0876 17.7234V18.9744ZM27.0876 14.72C27.0876 15.016 26.855 15.256 26.5662 15.256H23.7085C23.4197 15.256 23.188 15.016 23.188 14.72V13.47C23.188 13.1741 23.4197 12.9341 23.7085 12.9341H26.5662C26.855 12.9341 27.0876 13.1741 27.0876 13.47V14.72ZM27.0876 10.4656C27.0876 10.7596 26.855 11.0006 26.5662 11.0006H23.7085C23.4197 11.0006 23.188 10.7596 23.188 10.4656V9.21565C23.188 8.91968 23.4197 8.67966 23.7085 8.67966H26.5662C26.855 8.67966 27.0876 8.91968 27.0876 9.21565V10.4656Z" fill="white"/>
</g>
<defs>
<clipPath id="clip0">
<rect width="31" height="32" fill="white"/>
</clipPath>
</defs>
</svg>
