<svg width="34" height="34" viewBox="0 0 34 34" fill="none" xmlns="http://www.w3.org/2000/svg">
<g clip-path="url(#clip0)">
<path d="M7.7395 29.7166C10.2119 31.2043 13.0388 31.9885 15.9434 31.9885C24.7449 31.9885 32 24.8064 32 15.9941C32 7.19214 24.7551 0 15.9434 0C7.15845 0 0.0114746 7.17505 0.0114746 15.9941C0.0114746 18.9375 0.795898 21.7859 2.28345 24.2603L0 32L7.7395 29.7166ZM1.88599 15.9941C1.88599 8.2085 8.19214 1.87427 15.9434 1.87427C23.7634 1.87427 30.1257 8.2085 30.1257 15.9941C30.1257 23.78 23.7634 30.114 15.9434 30.114C13.2524 30.114 10.6375 29.3518 8.38184 27.9094L8.02148 27.6792L2.77222 29.228L4.3208 23.9785L4.09058 23.6184C2.64819 21.3623 1.88599 18.7261 1.88599 15.9941V15.9941Z" fill="white"/>
<path d="M7.78931 13.0471C8.09888 14.6729 9.01782 17.7998 11.6934 20.4753C14.3689 23.1509 17.4959 24.0701 19.1218 24.3796C20.9836 24.7341 23.7158 24.7876 25.051 23.4524L25.7954 22.708C26.1711 22.3323 26.3782 21.8325 26.3782 21.301C26.3782 20.7695 26.1711 20.27 25.7954 19.8943L22.8186 16.9175C22.4426 16.5415 21.9431 16.3347 21.4116 16.3347C20.8801 16.3347 20.3806 16.5415 20.0046 16.9175L19.2605 17.6616C18.8059 18.1162 17.9478 18.1182 17.4898 17.6672L14.5205 14.5735C14.5161 14.5688 14.5117 14.5642 14.5071 14.5598C14.0518 14.1045 14.0518 13.3635 14.5071 12.9082L15.2512 12.1641C16.0291 11.3862 16.0291 10.1277 15.2512 9.3501L12.2744 6.37329C11.4988 5.59766 10.2366 5.59766 9.46069 6.37329L8.71655 7.11768V7.11743C7.65088 8.18335 7.29565 10.4553 7.78931 13.0471V13.0471ZM10.042 8.44312C10.8232 7.67969 10.7815 7.66504 10.8677 7.66504C10.8972 7.66504 10.9268 7.67627 10.9492 7.69873C14.0859 10.8523 13.96 10.667 13.96 10.7573C13.96 10.7888 13.9485 10.8164 13.9263 10.8389L13.1819 11.583C11.9966 12.7683 11.9919 14.687 13.1743 15.8777L16.1453 18.9734C16.1499 18.9778 16.1543 18.9824 16.1589 18.9871C17.344 20.1721 19.397 20.176 20.5859 18.9871L21.3301 18.2429C21.375 18.198 21.4482 18.198 21.4932 18.2429C24.6299 21.3962 24.5039 21.2109 24.5039 21.3013C24.5039 21.333 24.4924 21.3604 24.4702 21.3828L23.7258 22.127C23.2158 22.637 21.5913 22.9421 19.4724 22.5386C18.0584 22.269 15.3394 21.4707 13.0188 19.1501C10.6982 16.8296 9.8999 14.1106 9.63062 12.6965C9.22681 10.5776 9.53198 8.95288 10.042 8.44312V8.44312Z" fill="white"/>
</g>
<defs>
<clipPath id="clip0">
<rect width="34" height="34" fill="white"/>
</clipPath>
</defs>
</svg>
